<?xml version="1.0" standalone="no"?>
<!DOCTYPE svg PUBLIC "-//W3C//DTD SVG 20010904//EN"
 "http://www.w3.org/TR/2001/REC-SVG-20010904/DTD/svg10.dtd">
<svg version="1.0" xmlns="http://www.w3.org/2000/svg"
 width="800.000000pt" height="800.000000pt" viewBox="0 0 800.000000 800.000000"
 preserveAspectRatio="xMidYMid meet">
<metadata>
Created by potrace 1.14, written by Peter Selinger 2001-2017
</metadata>
<g transform="translate(0.000000,800.000000) scale(0.100000,-0.100000)"
fill="#000000" stroke="none">
<path d="M3750 7669 c-41 -5 -118 -14 -170 -19 -210 -24 -431 -65 -564 -106
-102 -31 -233 -70 -266 -79 -14 -4 -30 -11 -35 -16 -6 -4 -44 -20 -85 -35 -81
-28 -402 -181 -410 -195 -3 -4 -21 -15 -40 -23 -34 -14 -133 -75 -157 -96 -7
-5 -19 -10 -28 -10 -8 0 -15 -3 -15 -7 0 -5 -25 -24 -55 -43 -30 -19 -55 -38
-55 -42 0 -5 -5 -8 -11 -8 -8 0 -83 -53 -99 -70 -3 -3 -21 -17 -40 -30 -33
-23 -58 -43 -84 -65 -6 -5 -31 -28 -56 -49 -124 -107 -315 -304 -435 -447 -58
-71 -212 -281 -237 -326 -17 -29 -34 -55 -39 -58 -5 -3 -16 -23 -26 -43 -9
-20 -29 -55 -43 -77 -79 -119 -235 -468 -300 -670 -23 -71 -45 -141 -50 -155
-9 -27 -18 -65 -49 -205 -70 -321 -83 -448 -83 -805 0 -291 15 -468 52 -640 6
-25 22 -99 35 -165 25 -118 49 -201 106 -379 46 -139 173 -436 192 -444 4 -2
7 -10 7 -17 0 -16 42 -99 53 -103 4 -2 7 -8 7 -14 0 -5 13 -28 28 -51 15 -23
38 -63 51 -89 13 -27 28 -48 33 -48 4 0 8 -5 8 -10 0 -10 96 -159 110 -170 3
-3 17 -21 30 -40 13 -19 27 -37 30 -40 3 -3 17 -21 30 -40 13 -19 32 -42 42
-51 10 -9 18 -20 18 -23 0 -9 -8 0 145 -163 150 -160 326 -323 415 -386 25
-17 56 -41 69 -53 14 -13 63 -49 110 -80 47 -32 88 -61 91 -64 3 -3 25 -16 50
-29 25 -14 51 -31 59 -39 7 -7 34 -23 60 -36 25 -12 64 -33 86 -46 160 -93
503 -238 659 -279 39 -10 109 -30 156 -44 105 -32 349 -77 525 -96 312 -36
437 -38 676 -16 277 25 547 71 704 119 44 13 107 32 140 41 126 34 429 159
573 236 163 88 185 100 227 129 24 17 48 30 54 30 6 0 11 5 11 10 0 6 5 10 11
10 13 0 158 98 180 122 9 10 19 18 23 18 8 0 129 94 178 139 21 19 47 40 58
48 87 61 377 371 493 527 21 28 44 58 51 67 7 9 33 45 56 80 24 35 46 66 49
69 3 3 12 16 19 29 8 13 23 40 34 60 11 20 33 54 48 76 15 22 33 54 42 70 8
17 41 82 72 145 32 63 62 124 67 135 4 11 20 47 35 80 26 59 102 267 129 355
14 43 73 282 95 382 29 136 60 485 60 683 0 125 -23 473 -35 545 -42 235 -106
497 -155 630 -17 47 -38 108 -46 135 -9 28 -19 55 -23 60 -4 6 -18 37 -31 70
-45 117 -147 315 -247 477 -29 48 -53 90 -53 93 0 3 -9 16 -21 28 -11 12 -29
38 -39 57 -10 19 -33 49 -49 67 -17 18 -31 36 -31 40 0 4 -10 20 -23 34 -12
15 -33 41 -47 59 -14 18 -32 41 -40 50 -8 10 -45 53 -82 96 -125 147 -527 513
-563 514 -6 0 -17 9 -25 20 -8 11 -19 20 -24 20 -5 0 -32 17 -60 38 -28 21
-72 51 -98 65 -26 15 -53 33 -60 40 -7 7 -42 28 -78 46 -93 49 -104 55 -110
61 -5 5 -23 14 -200 98 -132 63 -311 133 -415 162 -44 13 -111 33 -150 45
-289 94 -910 157 -1205 124z m-111 -323 c-5 -4 -46 -28 -146 -82 -37 -21 -87
-50 -110 -66 -23 -15 -46 -28 -52 -28 -6 0 -11 -4 -11 -10 0 -5 -6 -10 -14
-10 -8 0 -16 -3 -18 -7 -4 -10 -94 -73 -103 -73 -4 0 -15 -8 -24 -18 -9 -10
-32 -29 -51 -42 -19 -13 -42 -31 -50 -40 -8 -8 -40 -36 -70 -60 -58 -47 -262
-254 -289 -293 -8 -12 -23 -31 -33 -41 -28 -31 -123 -164 -179 -251 -63 -96
-174 -318 -219 -435 -18 -47 -37 -89 -42 -94 -4 -6 -8 -20 -8 -33 0 -13 -4
-31 -9 -41 -16 -28 -63 -219 -91 -372 -28 -146 -33 -543 -10 -665 38 -197 52
-256 80 -355 12 -41 25 -89 29 -105 4 -17 15 -46 24 -65 8 -19 21 -53 28 -75
7 -22 17 -44 21 -50 4 -5 8 -15 8 -23 0 -26 221 -463 254 -502 7 -8 27 -40 44
-71 37 -65 35 -67 -43 -93 -125 -41 -227 -152 -259 -283 -18 -77 -22 -253 -6
-335 26 -135 34 -166 50 -203 10 -22 28 -67 40 -100 35 -95 117 -251 189 -359
75 -113 81 -120 237 -279 146 -149 227 -211 374 -286 109 -56 164 -71 273 -71
98 0 165 16 261 61 34 16 77 29 97 29 36 0 40 -2 207 -118 30 -20 66 -44 80
-53 55 -34 198 -114 222 -126 142 -67 205 -94 260 -112 36 -12 73 -26 82 -31
10 -6 27 -10 37 -10 11 0 22 -4 25 -9 3 -5 18 -11 33 -14 16 -3 48 -11 73 -17
148 -37 386 -62 530 -56 69 3 136 8 150 12 l25 7 -25 -19 c-37 -28 -68 -44
-85 -44 -8 0 -15 -4 -15 -10 0 -5 -7 -10 -15 -10 -8 0 -52 -17 -97 -38 -46
-22 -114 -49 -153 -61 -38 -12 -80 -26 -92 -32 -62 -26 -114 -42 -173 -53 -14
-2 -43 -10 -65 -16 -226 -64 -430 -90 -755 -97 -347 -7 -641 25 -895 97 -22 6
-58 15 -80 20 -50 11 -177 53 -240 80 -26 11 -54 20 -63 20 -10 0 -53 17 -97
38 -44 21 -96 45 -115 52 -29 12 -102 49 -205 104 -45 25 -244 150 -305 192
-82 58 -174 130 -275 217 -47 41 -294 289 -335 337 -25 29 -50 58 -55 64 -6 6
-26 31 -45 56 -19 25 -41 51 -48 59 -24 24 -188 277 -233 358 -47 85 -159 312
-159 323 0 10 -20 51 -30 60 -3 3 -12 25 -19 50 -7 25 -17 54 -21 65 -5 11
-19 49 -31 85 -12 36 -25 70 -29 75 -4 6 -10 24 -13 40 -5 28 -13 62 -37 153
-52 206 -56 225 -81 437 -17 138 -23 584 -10 700 31 266 42 340 60 410 35 129
43 163 61 240 7 28 15 59 20 70 18 45 50 134 72 200 13 39 26 72 30 73 5 2 8
8 8 13 0 30 154 333 231 454 24 38 49 77 54 87 16 28 108 162 120 174 5 6 21
26 35 45 68 90 276 318 376 409 77 71 209 183 233 200 12 8 44 31 71 50 113
81 169 119 230 156 36 21 67 41 70 44 8 8 299 153 350 174 25 11 63 27 85 36
41 18 69 28 140 49 22 7 49 16 60 21 37 17 148 50 166 50 10 0 21 5 24 10 3 6
21 10 39 10 18 0 46 4 62 9 40 12 165 38 279 59 53 10 131 15 124 8z m1463
-1042 c21 -13 40 -24 42 -24 3 0 63 -36 133 -80 70 -44 133 -80 140 -80 7 0
13 -4 13 -10 0 -5 5 -10 11 -10 5 0 37 -18 69 -40 32 -22 62 -40 67 -40 4 0
33 -18 64 -40 32 -22 62 -40 67 -40 5 0 16 -7 23 -16 7 -9 36 -31 64 -50 27
-19 75 -52 105 -74 30 -22 76 -55 101 -73 38 -27 157 -115 194 -145 6 -4 66
-50 135 -102 69 -52 127 -97 130 -100 3 -3 21 -17 40 -30 19 -13 37 -27 40
-30 3 -3 21 -17 40 -30 19 -13 60 -46 91 -72 30 -26 60 -48 65 -48 5 0 27 -17
50 -38 23 -20 54 -44 70 -52 16 -8 54 -33 84 -55 30 -23 73 -53 96 -68 22 -15
50 -36 62 -47 12 -11 24 -20 26 -20 9 0 125 -90 133 -103 4 -6 10 -32 15 -57
4 -25 12 -67 17 -95 5 -27 16 -88 24 -135 36 -196 49 -604 27 -815 -22 -205
-60 -423 -100 -570 -12 -44 -24 -90 -27 -103 -3 -12 -9 -25 -14 -28 -5 -3 -9
-16 -9 -28 0 -13 -9 -48 -21 -77 -12 -30 -25 -63 -29 -74 -4 -11 -12 -31 -18
-45 -6 -14 -21 -54 -33 -90 -12 -36 -29 -76 -38 -90 -9 -14 -28 -50 -41 -80
-43 -95 -143 -271 -219 -385 -83 -123 -114 -168 -121 -175 -3 -3 -33 -39 -66
-80 -94 -114 -110 -132 -244 -268 -181 -184 -203 -199 -360 -245 -165 -48
-286 -74 -405 -87 -131 -14 -375 -11 -495 6 -156 22 -378 82 -505 136 -38 17
-86 37 -105 45 -64 27 -261 132 -270 143 -3 3 -26 18 -52 33 -26 15 -53 33
-60 40 -7 7 -29 24 -48 37 -19 13 -41 30 -48 37 -8 7 -30 26 -50 41 -21 15
-44 34 -52 43 -9 9 -35 23 -58 30 -35 10 -50 10 -85 -2 -23 -7 -48 -19 -55
-26 -24 -23 -76 -60 -117 -84 -56 -32 -187 -32 -260 0 -27 12 -62 27 -77 34
-16 7 -28 15 -28 19 0 5 -7 8 -15 8 -8 0 -23 8 -33 18 -9 9 -32 28 -51 41 -42
31 -124 112 -181 181 -25 30 -48 57 -52 58 -5 2 -8 10 -8 18 0 8 -4 14 -8 14
-5 0 -15 12 -23 28 -7 15 -30 52 -49 82 -43 65 -97 175 -152 310 -6 14 -14 34
-19 45 -5 11 -18 67 -30 125 -22 112 -21 156 8 250 20 68 51 111 108 150 69
47 133 38 212 -30 17 -15 48 -33 68 -40 39 -13 138 -6 143 10 2 6 9 10 15 10
22 0 66 89 76 152 6 35 13 125 16 200 5 136 27 315 45 373 5 17 25 100 45 186
46 200 98 352 175 509 34 69 66 134 73 145 6 11 24 45 41 75 16 30 33 57 38
58 4 2 8 11 8 20 0 10 9 28 20 42 11 14 20 30 20 36 0 5 8 19 18 30 10 10 26
36 35 56 10 20 22 40 27 43 5 3 17 21 26 40 9 19 20 35 25 35 5 0 9 6 9 13 0
8 9 22 20 32 11 10 20 23 20 30 0 7 12 25 28 41 15 16 35 46 45 66 10 21 23
41 31 45 7 4 26 28 43 53 17 25 39 54 50 65 10 12 29 36 43 55 13 19 36 48 50
64 174 201 200 231 325 359 124 127 297 288 378 352 138 109 135 108 209 59z"/>
<path d="M6010 5073 c-30 -2 -59 -8 -64 -14 -6 -5 -20 -9 -33 -9 -22 0 -69
-18 -162 -63 -58 -28 -133 -101 -160 -154 -11 -23 -21 -47 -21 -52 0 -19 52
-71 72 -71 11 0 61 19 112 41 199 91 309 129 400 139 86 10 120 33 124 84 5
64 -35 91 -143 98 -38 3 -95 3 -125 1z"/>
<path d="M6025 4541 c-43 -11 -66 -25 -97 -59 -47 -53 -60 -90 -61 -171 -1
-73 26 -191 43 -191 4 0 13 -13 19 -28 7 -16 29 -45 49 -65 75 -75 79 -77 181
-100 45 -11 120 14 157 52 57 57 68 87 69 176 0 99 -18 163 -66 235 -73 110
-200 175 -294 151z"/>
<path d="M4165 4338 c-174 -58 -247 -98 -318 -175 -154 -164 -90 -300 85 -182
137 92 307 179 349 179 10 0 21 5 24 10 3 6 15 10 27 10 11 0 33 9 49 21 24
17 29 27 29 64 0 67 -29 85 -134 84 -44 0 -94 -5 -111 -11z"/>
<path d="M4273 3844 c-13 -3 -43 -24 -69 -47 -92 -84 -105 -250 -31 -406 33
-70 135 -181 167 -181 10 0 22 -4 25 -10 10 -16 126 -11 165 8 82 41 127 172
104 302 -13 73 -17 87 -47 149 -25 51 -112 142 -158 165 -34 17 -119 28 -156
20z"/>
<path d="M5778 3186 c-15 -8 -36 -23 -48 -34 -11 -10 -33 -25 -48 -33 -15 -7
-38 -21 -52 -30 -38 -25 -142 -59 -180 -59 -45 0 -106 -19 -130 -42 -42 -39
-13 -127 48 -147 50 -17 215 -4 247 19 6 4 39 17 75 30 36 13 70 29 77 36 7 6
31 24 55 39 94 59 126 154 72 209 -30 30 -73 34 -116 12z"/>
<path d="M2967 2652 c-19 -21 -24 -117 -7 -127 6 -3 10 -14 10 -23 0 -25 64
-152 94 -187 14 -16 26 -33 26 -38 0 -9 43 -60 87 -103 28 -28 47 -36 116 -50
25 -6 57 31 57 66 0 29 -4 34 -147 189 -18 19 -33 39 -33 44 0 5 -8 21 -19 35
-31 44 -57 95 -71 137 -7 22 -19 48 -28 58 -20 22 -64 22 -85 -1z"/>
<path d="M6297 2580 c-15 -5 -56 -22 -90 -38 -34 -17 -78 -36 -97 -42 -38 -13
-69 -26 -145 -60 -27 -13 -79 -34 -115 -47 -36 -14 -96 -38 -135 -55 -121 -51
-129 -55 -188 -78 -83 -33 -105 -72 -71 -129 29 -49 132 -65 236 -37 65 18
156 50 165 59 3 4 17 7 30 7 13 0 31 4 41 9 9 6 49 24 87 41 39 17 78 35 87
41 10 5 27 9 38 9 11 0 20 5 20 10 0 6 7 10 16 10 15 0 123 69 158 102 11 10
22 18 26 18 14 0 45 76 45 112 0 30 -6 45 -24 59 -25 20 -40 22 -84 9z"/>
</g>
</svg>
