<svg height="100%" version="1.1" width="100%" xmlns="http://www.w3.org/2000/svg" preserveAspectRatio="xMidYMid meet" viewBox="0 0 600 442" xmlns:xlink="http://www.w3.org/1999/xlink"><desc>Created with Snap</desc><defs/><g id="root" contentwidth="437.14285714285717" contentheight="265.2">
          <rect class="background" height="2000%" width="2000%" y="-1000%" x="-1000%" style="" fill="#ffffff"/>
          <rect class="watermarklayer" height="100%" width="100%" y="0" x="0" style="" fill="none"/>
          <g class="content" id="content" transform="matrix(1,0,0,1,201.05,245.9)">
            <g class="icon" style="mask: url(#mask);">
            <svg height="265.2" version="1.1" width="437.14285714285717" xmlns="http://www.w3.org/2000/svg" x="-119.62142857142858" y="-157.5"><desc>Created with Snap</desc><defs/><svg xmlns:xlink="http://www.w3.org/1999/xlink" version="1.1" xmlns="http://www.w3.org/2000/svg" viewBox="31 55 150 91"><defs>
        <mask id="picmask" xmlns="http://www.w3.org/2000/svg">
            <rect class="none" fill="white" x="0" y="0" width="200" height="200"/>
            <rect class="none" fill="black" x="0" y="100" width="200" height="5"/>
            <rect class="none" fill="black" x="0" y="105" width="200" height="5"/>
            <rect class="none" fill="black" x="0" y="110" width="200" height="5"/>
            <rect class="none" fill="black" x="0" y="115" width="200" height="5"/>
            <rect class="none" fill="black" x="0" y="120" width="200" height="5"/>
            <rect class="none" fill="black" x="0" y="125" width="200" height="5"/>
            <rect class="none" fill="black" x="0" y="130" width="200" height="5"/>
            <rect class="none" fill="black" x="0" y="135" width="200" height="5"/>
            <rect class="none" fill="black" x="0" y="140" width="200" height="5"/>
            <rect class="none" fill="black" x="0" y="145" width="200" height="5"/>
            <rect class="none" fill="black" x="0" y="150" width="200" height="5"/>
            <rect class="none" fill="black" x="0" y="155" width="200" height="5"/>
            <rect class="none" fill="black" x="0" y="160" width="200" height="5"/>
            <rect class="none" fill="black" x="0" y="165" width="200" height="5"/>
        </mask>
        
        <mask id="picmask2" xmlns="http://www.w3.org/2000/svg">
                <rect class="none" fill="black" x="0" y="0" width="200" height="200"/>
                <rect class="none" fill="white" x="0" y="100" width="200" height="1"/>
                <rect class="none" fill="white" x="0" y="105" width="200" height="1"/>
                <rect class="none" fill="white" x="0" y="110" width="200" height="1"/>
                <rect class="none" fill="white" x="0" y="115" width="200" height="1"/>
                <rect class="none" fill="white" x="0" y="120" width="200" height="1"/>
                <rect class="none" fill="white" x="0" y="125" width="200" height="1"/>
                <rect class="none" fill="white" x="0" y="130" width="200" height="1"/>
                <rect class="none" fill="white" x="0" y="135" width="200" height="1"/>
                <rect class="none" fill="white" x="0" y="140" width="200" height="1"/>
                <rect class="none" fill="white" x="0" y="145" width="200" height="1"/>
                <rect class="none" fill="white" x="0" y="150" width="200" height="1"/>
                <rect class="none" fill="white" x="0" y="155" width="200" height="1"/>
                <rect class="none" fill="white" x="0" y="160" width="200" height="1"/>
                <rect class="none" fill="white" x="0" y="165" width="200" height="1"/>
        </mask>
        </defs><g style="mask: url(#picmask);"><path fill="#863032" stroke="none" paint-order="stroke fill markers" d=" M 140 100 A 40 40 0 1 0 139.99998000000167 100.03999999333335" style=""/><path fill="#c59c6c" stroke="none" paint-order="stroke fill markers" d=" M 84.72 100 A 24.72 24.72 0 1 0 84.71998764000102 100.02471999588" style=""/><path fill="#515151" stroke="none" paint-order="stroke fill markers" d=" M 175.27696 100 A 15.276959999999999 15.276959999999999 0 1 0 175.27695236152064 100.01527695745385" style=""/></g><g style="mask:url(#picmask2);fill:#BABABA" id="clonedg"><path stroke="none" paint-order="stroke fill markers" d=" M 140 100 A 40 40 0 1 0 139.99998000000167 100.03999999333335"/><path stroke="none" paint-order="stroke fill markers" d=" M 84.72 100 A 24.72 24.72 0 1 0 84.71998764000102 100.02471999588"/><path stroke="none" paint-order="stroke fill markers" d=" M 175.27696 100 A 15.276959999999999 15.276959999999999 0 1 0 175.27695236152064 100.01527695745385"/></g><desc>Created with Snap</desc></svg></svg></g>
            <g id="icon_name_and_slogan_gap">
            </g>
            <g class="name_and_slogan" id="name_and_slogan_id">
              <g class="name"><g id="nameDefaultGroup"><path d="M32 -38.8Q34.4 -35.5 35.4 -31.7Q36.4 -27.9 36.5 -22.8Q36.6 -17.3 33.5 -12.5Q31.1 -9 26.9 -6.9Q22.7 -4.9 18.1 -4.9Q13 -4.9 9.4 -7.3Q3.1 -11.3 3.1 -20.6Q3.1 -30.8 8.6 -38Q10.6 -40.8 13.8 -42.9Q17.4 -44.9 20.9 -44.9Q24.2 -44.9 27.1 -43.3Q30 -41.8 32 -38.8zM17.4 -10.5Q18.2 -10.5 18.6 -10.6Q27.6 -10.6 30.1 -17.9Q31.2 -21.2 31.2 -24.3Q31.2 -30.3 27.5 -35.8Q26.4 -37.5 24.7 -38.4Q23 -39.3 21.1 -39.3Q19 -39.3 16.8 -38.2Q14.9 -37.2 12.6 -34.4Q8.6 -29.2 8.6 -21.5Q8.6 -16.6 10.6 -13.5Q12.7 -10.5 17.4 -10.5zM48.4 -6.6Q45.3 -8 43.8 -11Q42.3 -14 42.3 -18.1Q42.3 -22.5 45 -26.9Q46.7 -29.5 49.5 -31Q52.3 -32.5 55.4 -32.5Q58.5 -32.5 61 -31.1Q63.1 -30 64.5 -28.2Q64.7 -27.9 64.5 -27Q64.4 -26.1 64 -25.6Q63.6 -25.2 62.2 -25.2L61.7 -25.2Q61.1 -25.4 60.4 -25.8Q59.6 -26.2 59 -26.5Q57.5 -27.2 55.6 -27.2Q53.9 -27.2 52.4 -26.6Q51 -25.9 50 -24.7Q49 -23.4 48.4 -21.5Q47.8 -19.5 47.8 -17.6Q47.8 -14.5 49 -13Q49.8 -11.9 51.1 -11.3Q52.5 -10.7 54.1 -10.7Q55.5 -10.7 56.9 -11.2Q57.6 -11.4 58.2 -11.7Q58.8 -12 59.5 -12.2Q60.2 -12.5 61 -12.5Q62.5 -12.5 63.3 -11Q63.6 -10.5 63.6 -9.9Q63.6 -8.4 62 -7.6Q58 -5.3 54.1 -5.3Q51.3 -5.3 48.4 -6.6zM78.2 -15.6Q76.2 -15.6 74.6 -15.8Q74.9 -13.5 76.6 -12.2Q78.2 -10.9 80.7 -10.9Q81.4 -10.9 83.2 -11.2Q83.4 -11.3 84.2 -11.7Q85 -12.1 85.5 -12.1Q86.3 -12.1 87.1 -11.9Q88 -11.7 88.1 -11.3Q88.4 -11 88.4 -10.1Q88.4 -8.7 87.9 -8.4Q85.8 -6.5 83.3 -5.7Q81.9 -5.3 80 -5.3Q77 -5.3 74 -6.8Q72.1 -7.8 70.7 -9.8Q69.4 -11.7 69 -14Q68.9 -16.1 68.9 -17Q68.9 -23.3 72.2 -28.2Q73.7 -30.5 76.3 -31.7Q79 -32.9 81.9 -32.9Q85.4 -32.9 87.9 -31.3Q89.3 -30.5 90 -29Q90.8 -27.6 90.8 -26.1Q90.8 -24.5 90.1 -23Q89.4 -21.5 88.1 -20.5Q83.9 -16.8 78.2 -15.6zM81.9 -27.7Q79.4 -27.7 77.9 -26.2Q76.3 -24.7 75.2 -21.2Q77 -20.8 78.6 -20.8Q81.6 -20.8 84.5 -22.7Q86.3 -23.9 86.3 -25.2Q86.3 -25.6 86 -26.1Q85.7 -26.6 84.9 -27Q84.2 -27.4 83.4 -27.6Q82.9 -27.7 81.9 -27.7zM115.1 -8.4Q115.1 -8.6 114.8 -8.8Q114.6 -9.1 114.3 -9.4Q109.9 -5.3 105.2 -5.3L104 -5.4Q100.4 -5.8 98.4 -7.5Q96.4 -9.3 95.8 -12.6Q95.6 -14.1 95.6 -15.5Q95.6 -20.4 97.9 -24.7Q100.2 -29 104.1 -31.1Q105.6 -31.8 106.7 -32.2Q107.8 -32.5 108.9 -32.5Q114.3 -32.8 117 -30.5Q119.6 -28.1 119.6 -21.6Q119.6 -19.5 119.7 -16.8Q119.9 -14.2 120 -13.2L120.2 -10Q120.3 -8.3 120 -7.3Q119.6 -6.4 118.6 -6.1L117.7 -6Q116.7 -6 116.1 -6.6Q115.6 -7.3 115.1 -8.4zM114.2 -22.9Q114.3 -24.9 114.5 -25.8Q112 -27.6 109.9 -27.6Q108.2 -27.6 105.9 -26.2Q103.5 -24.5 102.3 -21.6Q101.1 -18.7 101.1 -15.3Q101.1 -12.7 102 -11.7Q103 -10.7 105.3 -10.8Q109.6 -11.2 112.5 -15.8Q113.4 -17.1 113.7 -18.6Q114 -20.2 114.2 -22.9zM131.3 -32.2Q133.3 -32.2 133.9 -30L134.1 -29.1Q135.9 -29.7 136.9 -30.2Q137.2 -30.4 138.4 -30.9Q139.7 -31.5 140.9 -31.7Q142.1 -32 143.6 -32Q147 -32 149.1 -30.1Q151.2 -28.2 151.6 -24.7Q152.1 -19.9 152.1 -12.2L152.1 -9.1Q152.1 -8.5 151.9 -8Q151.7 -7.4 151.5 -7.2Q150.7 -6 149.4 -6Q148.1 -6 147.4 -7.3Q147.1 -8 147 -9.1Q146.8 -10.2 146.7 -10.7L146.6 -14.8Q146.4 -20.2 146.3 -22.8Q146.1 -25.1 145 -26.3Q143.9 -27.6 142 -27.6Q141.3 -27.6 141 -27.6Q139 -26.9 137.4 -25.8Q135.8 -24.8 134.2 -23Q133.6 -22.4 133.6 -19.6Q133.6 -17.6 133.8 -13.8L133.8 -8.6Q133.8 -8.1 133.7 -7.9Q133.3 -7.2 132.7 -6.7Q132.1 -6.1 131.5 -6Q130.9 -5.9 130.1 -6.4Q129.2 -6.8 128.9 -7.4Q128.1 -8.9 128.1 -11.6Q128.1 -21.7 128.4 -28.9Q128.5 -30.2 129 -31.1Q129.5 -31.9 130.7 -32.1L131.3 -32.2zM163.9 -43.5Q165 -43.4 165.9 -42.4Q166.8 -41.5 166.8 -40.5Q166.8 -39.2 165.7 -38.3Q164.7 -37.4 163.2 -37.3Q162.1 -37.4 161.2 -38.3Q160.4 -39.2 160.4 -40.3Q160.4 -41.8 161.5 -42.7Q162.6 -43.6 163.9 -43.5zM162.7 -6Q160.5 -6 160.1 -8.4Q160 -8.8 160 -10.5Q160 -14.7 160.3 -19.9L160.4 -28.4Q160.4 -30 161.2 -30.9Q162 -31.8 163.3 -31.9Q164.5 -31.8 165.1 -30.9Q165.8 -30.1 165.9 -28.6Q166 -27.1 166 -24.3Q166 -22.1 165.9 -21.1Q165.7 -17.4 165.7 -15.8Q165.7 -14.9 165.7 -13.6Q165.7 -12.3 165.5 -10.4Q165.6 -9.9 165.5 -9.3Q165.3 -8.6 165.3 -8.4Q164.9 -6 162.7 -6zM178.6 -6.6Q175.5 -8 174 -11Q172.5 -14 172.5 -18.1Q172.5 -22.5 175.2 -26.9Q176.8 -29.5 179.6 -31Q182.4 -32.5 185.6 -32.5Q188.6 -32.5 191.2 -31.1Q193.2 -30 194.7 -28.2Q194.9 -27.9 194.7 -27Q194.5 -26.1 194.2 -25.6Q193.7 -25.2 192.4 -25.2L191.9 -25.2Q191.3 -25.4 190.5 -25.8Q189.8 -26.2 189.2 -26.5Q187.7 -27.2 185.8 -27.2Q184.1 -27.2 182.6 -26.6Q181.2 -25.9 180.2 -24.7Q179.1 -23.4 178.6 -21.5Q178 -19.5 178 -17.6Q178 -14.5 179.1 -13Q179.9 -11.9 181.3 -11.3Q182.7 -10.7 184.3 -10.7Q185.7 -10.7 187.1 -11.2Q187.8 -11.4 188.4 -11.7Q189 -12 189.7 -12.2Q190.4 -12.5 191.2 -12.5Q192.7 -12.5 193.5 -11Q193.7 -10.5 193.7 -9.9Q193.7 -8.4 192.2 -7.6Q188.1 -5.3 184.3 -5.3Q181.5 -5.3 178.6 -6.6z" style="" fill="#c59c6c" id="namepathdata"/></g></g>
              <g class="slogan"><g id="sloganDefaultGroup"/></g>
            </g>
            <g class="border">
            </g>
          </g>
          <defs id="defs">
            <mask xmlns="http://www.w3.org/2000/svg" id="mask">
                <rect id="showAll" fill="white" x="-119.62142857142858" y="-157.5" width="437.14285714285717" height="265.2"/>
                <rect id="hideNameBg" fill="black" x="0" y="0" width="0" height="0" stroke-width="2" stroke="black"/>
                <rect id="hideSloganBg" fill="black" x="0" y="0" width="0" height="0" stroke-width="2" stroke="black"/>
            <path d="M32 -38.8Q34.4 -35.5 35.4 -31.7Q36.4 -27.9 36.5 -22.8Q36.6 -17.3 33.5 -12.5Q31.1 -9 26.9 -6.9Q22.7 -4.9 18.1 -4.9Q13 -4.9 9.4 -7.3Q3.1 -11.3 3.1 -20.6Q3.1 -30.8 8.6 -38Q10.6 -40.8 13.8 -42.9Q17.4 -44.9 20.9 -44.9Q24.2 -44.9 27.1 -43.3Q30 -41.8 32 -38.8zM17.4 -10.5Q18.2 -10.5 18.6 -10.6Q27.6 -10.6 30.1 -17.9Q31.2 -21.2 31.2 -24.3Q31.2 -30.3 27.5 -35.8Q26.4 -37.5 24.7 -38.4Q23 -39.3 21.1 -39.3Q19 -39.3 16.8 -38.2Q14.9 -37.2 12.6 -34.4Q8.6 -29.2 8.6 -21.5Q8.6 -16.6 10.6 -13.5Q12.7 -10.5 17.4 -10.5zM48.4 -6.6Q45.3 -8 43.8 -11Q42.3 -14 42.3 -18.1Q42.3 -22.5 45 -26.9Q46.7 -29.5 49.5 -31Q52.3 -32.5 55.4 -32.5Q58.5 -32.5 61 -31.1Q63.1 -30 64.5 -28.2Q64.7 -27.9 64.5 -27Q64.4 -26.1 64 -25.6Q63.6 -25.2 62.2 -25.2L61.7 -25.2Q61.1 -25.4 60.4 -25.8Q59.6 -26.2 59 -26.5Q57.5 -27.2 55.6 -27.2Q53.9 -27.2 52.4 -26.6Q51 -25.9 50 -24.7Q49 -23.4 48.4 -21.5Q47.8 -19.5 47.8 -17.6Q47.8 -14.5 49 -13Q49.8 -11.9 51.1 -11.3Q52.5 -10.7 54.1 -10.7Q55.5 -10.7 56.9 -11.2Q57.6 -11.4 58.2 -11.7Q58.8 -12 59.5 -12.2Q60.2 -12.5 61 -12.5Q62.5 -12.5 63.3 -11Q63.6 -10.5 63.6 -9.9Q63.6 -8.4 62 -7.6Q58 -5.3 54.1 -5.3Q51.3 -5.3 48.4 -6.6zM78.2 -15.6Q76.2 -15.6 74.6 -15.8Q74.9 -13.5 76.6 -12.2Q78.2 -10.9 80.7 -10.9Q81.4 -10.9 83.2 -11.2Q83.4 -11.3 84.2 -11.7Q85 -12.1 85.5 -12.1Q86.3 -12.1 87.1 -11.9Q88 -11.7 88.1 -11.3Q88.4 -11 88.4 -10.1Q88.4 -8.7 87.9 -8.4Q85.8 -6.5 83.3 -5.7Q81.9 -5.3 80 -5.3Q77 -5.3 74 -6.8Q72.1 -7.8 70.7 -9.8Q69.4 -11.7 69 -14Q68.9 -16.1 68.9 -17Q68.9 -23.3 72.2 -28.2Q73.7 -30.5 76.3 -31.7Q79 -32.9 81.9 -32.9Q85.4 -32.9 87.9 -31.3Q89.3 -30.5 90 -29Q90.8 -27.6 90.8 -26.1Q90.8 -24.5 90.1 -23Q89.4 -21.5 88.1 -20.5Q83.9 -16.8 78.2 -15.6zM81.9 -27.7Q79.4 -27.7 77.9 -26.2Q76.3 -24.7 75.2 -21.2Q77 -20.8 78.6 -20.8Q81.6 -20.8 84.5 -22.7Q86.3 -23.9 86.3 -25.2Q86.3 -25.6 86 -26.1Q85.7 -26.6 84.9 -27Q84.2 -27.4 83.4 -27.6Q82.9 -27.7 81.9 -27.7zM115.1 -8.4Q115.1 -8.6 114.8 -8.8Q114.6 -9.1 114.3 -9.4Q109.9 -5.3 105.2 -5.3L104 -5.4Q100.4 -5.8 98.4 -7.5Q96.4 -9.3 95.8 -12.6Q95.6 -14.1 95.6 -15.5Q95.6 -20.4 97.9 -24.7Q100.2 -29 104.1 -31.1Q105.6 -31.8 106.7 -32.2Q107.8 -32.5 108.9 -32.5Q114.3 -32.8 117 -30.5Q119.6 -28.1 119.6 -21.6Q119.6 -19.5 119.7 -16.8Q119.9 -14.2 120 -13.2L120.2 -10Q120.3 -8.3 120 -7.3Q119.6 -6.4 118.6 -6.1L117.7 -6Q116.7 -6 116.1 -6.6Q115.6 -7.3 115.1 -8.4zM114.2 -22.9Q114.3 -24.9 114.5 -25.8Q112 -27.6 109.9 -27.6Q108.2 -27.6 105.9 -26.2Q103.5 -24.5 102.3 -21.6Q101.1 -18.7 101.1 -15.3Q101.1 -12.7 102 -11.7Q103 -10.7 105.3 -10.8Q109.6 -11.2 112.5 -15.8Q113.4 -17.1 113.7 -18.6Q114 -20.2 114.2 -22.9zM131.3 -32.2Q133.3 -32.2 133.9 -30L134.1 -29.1Q135.9 -29.7 136.9 -30.2Q137.2 -30.4 138.4 -30.9Q139.7 -31.5 140.9 -31.7Q142.1 -32 143.6 -32Q147 -32 149.1 -30.1Q151.2 -28.2 151.6 -24.7Q152.1 -19.9 152.1 -12.2L152.1 -9.1Q152.1 -8.5 151.9 -8Q151.7 -7.4 151.5 -7.2Q150.7 -6 149.4 -6Q148.1 -6 147.4 -7.3Q147.1 -8 147 -9.1Q146.8 -10.2 146.7 -10.7L146.6 -14.8Q146.4 -20.2 146.3 -22.8Q146.1 -25.1 145 -26.3Q143.9 -27.6 142 -27.6Q141.3 -27.6 141 -27.6Q139 -26.9 137.4 -25.8Q135.8 -24.8 134.2 -23Q133.6 -22.4 133.6 -19.6Q133.6 -17.6 133.8 -13.8L133.8 -8.6Q133.8 -8.1 133.7 -7.9Q133.3 -7.2 132.7 -6.7Q132.1 -6.1 131.5 -6Q130.9 -5.9 130.1 -6.4Q129.2 -6.8 128.9 -7.4Q128.1 -8.9 128.1 -11.6Q128.1 -21.7 128.4 -28.9Q128.5 -30.2 129 -31.1Q129.5 -31.9 130.7 -32.1L131.3 -32.2zM163.9 -43.5Q165 -43.4 165.9 -42.4Q166.8 -41.5 166.8 -40.5Q166.8 -39.2 165.7 -38.3Q164.7 -37.4 163.2 -37.3Q162.1 -37.4 161.2 -38.3Q160.4 -39.2 160.4 -40.3Q160.4 -41.8 161.5 -42.7Q162.6 -43.6 163.9 -43.5zM162.7 -6Q160.5 -6 160.1 -8.4Q160 -8.8 160 -10.5Q160 -14.7 160.3 -19.9L160.4 -28.4Q160.4 -30 161.2 -30.9Q162 -31.8 163.3 -31.9Q164.5 -31.8 165.1 -30.9Q165.8 -30.1 165.9 -28.6Q166 -27.1 166 -24.3Q166 -22.1 165.9 -21.1Q165.7 -17.4 165.7 -15.8Q165.7 -14.9 165.7 -13.6Q165.7 -12.3 165.5 -10.4Q165.6 -9.9 165.5 -9.3Q165.3 -8.6 165.3 -8.4Q164.9 -6 162.7 -6zM178.6 -6.6Q175.5 -8 174 -11Q172.5 -14 172.5 -18.1Q172.5 -22.5 175.2 -26.9Q176.8 -29.5 179.6 -31Q182.4 -32.5 185.6 -32.5Q188.6 -32.5 191.2 -31.1Q193.2 -30 194.7 -28.2Q194.9 -27.9 194.7 -27Q194.5 -26.1 194.2 -25.6Q193.7 -25.2 192.4 -25.2L191.9 -25.2Q191.3 -25.4 190.5 -25.8Q189.8 -26.2 189.2 -26.5Q187.7 -27.2 185.8 -27.2Q184.1 -27.2 182.6 -26.6Q181.2 -25.9 180.2 -24.7Q179.1 -23.4 178.6 -21.5Q178 -19.5 178 -17.6Q178 -14.5 179.1 -13Q179.9 -11.9 181.3 -11.3Q182.7 -10.7 184.3 -10.7Q185.7 -10.7 187.1 -11.2Q187.8 -11.4 188.4 -11.7Q189 -12 189.7 -12.2Q190.4 -12.5 191.2 -12.5Q192.7 -12.5 193.5 -11Q193.7 -10.5 193.7 -9.9Q193.7 -8.4 192.2 -7.6Q188.1 -5.3 184.3 -5.3Q181.5 -5.3 178.6 -6.6z" style="stroke-width: 0;" fill="#000000" id="masknamepathdata" stroke="#000000" paint-order="stroke" transform="matrix(1,0,0,1,0,0)"/></mask>
          
          </defs>
        </g>
        </svg>